<?xml version="1.0" encoding="UTF-8" standalone="no"?>
<!-- Created with Inkscape (http://www.inkscape.org/) -->

<svg
   xmlns:dc="http://purl.org/dc/elements/1.1/"
   xmlns:cc="http://creativecommons.org/ns#"
   xmlns:rdf="http://www.w3.org/1999/02/22-rdf-syntax-ns#"
   xmlns:svg="http://www.w3.org/2000/svg"
   xmlns="http://www.w3.org/2000/svg"
   version="1.1"
   width="627.42499"
   height="627.42499"
   id="svg2"
   xml:space="preserve"><metadata
     id="metadata8"><rdf:RDF><cc:Work
         rdf:about=""><dc:format>image/svg+xml</dc:format><dc:type
           rdf:resource="http://purl.org/dc/dcmitype/StillImage" /><dc:title></dc:title></cc:Work></rdf:RDF></metadata><defs
     id="defs6" /><g
     transform="matrix(1.25,0,0,-1.25,0,627.425)"
     id="g10"><g
       transform="scale(0.1,0.1)"
       id="g12"><path
         d="m 1845.82,2502.92 c 0.61,-360.53 292.16,-652.09 652.67,-652.67 l 0,0 c 360.46,0.58 652.04,292.14 652.7,652.67 l 0,0 c -0.66,360.47 -292.24,652.02 -652.7,652.66 l 0,0 c -360.51,-0.64 -652.06,-292.19 -652.67,-652.66 l 0,0 z m -26.73,0 c 0,375.24 304.15,679.34 679.4,679.44 l 0,0 c 375.22,-0.1 679.38,-304.2 679.42,-679.44 l 0,0 c -0.04,-375.25 -304.2,-679.39 -679.42,-679.39 l 0,0 c -375.25,0 -679.4,304.14 -679.4,679.39 l 0,0"
         id="path14"
         style="fill:#6b3920;fill-opacity:1;fill-rule:nonzero;stroke:none" /><path
         d="m 2498.53,1894.52 c -335.47,0 -608.4,272.93 -608.4,608.35 0,335.42 272.93,608.39 608.4,608.39 335.42,0 608.31,-272.97 608.31,-608.39 0,-335.42 -272.89,-608.35 -608.31,-608.35 l 0,0"
         id="path16"
         style="fill:#ffffff;fill-opacity:1;fill-rule:evenodd;stroke:none" /><path
         d="m 2498.49,3117.94 c -339.14,0 -615.06,-275.89 -615.06,-615.07 0,-339.13 275.92,-615.03 615.06,-615.03 339.13,0 615.06,275.9 615.06,615.03 0,339.18 -275.93,615.07 -615.06,615.07 l 0,0"
         id="path18"
         style="fill:#ffffff;fill-opacity:1;fill-rule:nonzero;stroke:none" /><path
         d="m 2769.38,1241.92 -5.08,-1.09 -23.68,111.29 5.07,1.09 23.69,-111.29 0,0 z m -536.31,2522.97 23.7,-111.29 -5.09,-1.13 -23.65,111.33 c 1.68,0.34 3.36,0.76 5.04,1.09 l 0,0"
         id="path20"
         style="fill:#6b3920;fill-opacity:1;fill-rule:nonzero;stroke:none" /><path
         d="m 2813.22,1252.08 -5.04,-1.21 -27.54,110.41 5.06,1.25 27.52,-110.45 0,0 z m -624.01,2502.77 27.56,-110.41 -5.09,-1.21 -27.51,110.4 5.04,1.22 0,0"
         id="path22"
         style="fill:#6b3920;fill-opacity:1;fill-rule:nonzero;stroke:none" /><path
         d="m 2856.7,1263.76 c -1.68,-0.45 -3.32,-0.96 -4.98,-1.5 l -31.37,109.43 c 1.68,0.47 3.32,1.02 4.98,1.52 l 31.37,-109.45 0,0 z m -711.01,2479.66 31.39,-109.4 c -1.71,-0.5 -3.34,-1 -5,-1.51 l -31.37,109.4 c 1.66,0.5 3.3,1.01 4.98,1.51 l 0,0"
         id="path24"
         style="fill:#6b3920;fill-opacity:1;fill-rule:nonzero;stroke:none" /><path
         d="m 2899.71,1277.08 -4.96,-1.64 -35.16,108.22 4.96,1.64 35.16,-108.22 0,0 z m -797.08,2453.15 35.16,-108.22 -4.95,-1.59 -35.17,108.21 4.96,1.6 0,0"
         id="path26"
         style="fill:#6b3920;fill-opacity:1;fill-rule:nonzero;stroke:none" /><path
         d="m 2942.29,1291.71 c -1.65,-0.59 -3.31,-1.13 -4.93,-1.72 l -38.86,106.92 4.86,1.71 38.93,-106.91 0,0 z m -882.27,2423.98 38.91,-106.91 -4.87,-1.77 -38.95,106.97 c 1.64,0.58 3.3,1.13 4.91,1.71 l 0,0"
         id="path28"
         style="fill:#6b3920;fill-opacity:1;fill-rule:nonzero;stroke:none" /><path
         d="m 2984.24,1308.06 -4.83,-1.99 -42.61,105.5 4.8,1.98 42.64,-105.49 0,0 z m -966.27,2391.59 42.65,-105.54 -4.83,-1.97 -42.65,105.53 4.83,1.98 0,0"
         id="path30"
         style="fill:#6b3920;fill-opacity:1;fill-rule:nonzero;stroke:none" /><path
         d="m 3025.66,1325.66 -4.78,-2.07 -46.29,103.98 c 1.58,0.68 3.18,1.35 4.79,2.07 l 46.28,-103.98 0,0 z m -1049.15,2356.47 46.3,-103.98 c -1.6,-0.71 -3.2,-1.34 -4.8,-2.06 l -46.27,103.94 4.77,2.1 0,0"
         id="path32"
         style="fill:#6b3920;fill-opacity:1;fill-rule:nonzero;stroke:none" /><path
         d="m 3066.37,1344.85 -4.65,-2.3 -49.9,102.25 4.66,2.36 49.89,-102.31 0,0 z m -1130.7,2318.29 49.87,-102.26 -4.67,-2.3 -49.86,102.25 4.66,2.31 0,0"
         id="path34"
         style="fill:#6b3920;fill-opacity:1;fill-rule:nonzero;stroke:none" /><path
         d="m 3106.45,1365.36 -4.61,-2.4 -53.44,100.49 4.61,2.44 53.44,-100.53 0,0 z m -1210.9,2277.36 53.44,-100.45 -4.62,-2.43 -53.4,100.44 4.58,2.44 0,0"
         id="path36"
         style="fill:#6b3920;fill-opacity:1;fill-rule:nonzero;stroke:none" /><path
         d="m 3145.74,1387.34 c -1.52,-0.9 -2.97,-1.82 -4.45,-2.66 l -56.93,98.55 c 1.5,0.84 3.02,1.78 4.49,2.62 l 56.89,-98.51 0,0 z M 1856.1,3621 l 56.93,-98.51 c -1.51,-0.89 -2.99,-1.81 -4.5,-2.65 l -56.84,98.56 c 1.47,0.84 2.94,1.72 4.41,2.6 l 0,0"
         id="path38"
         style="fill:#6b3920;fill-opacity:1;fill-rule:nonzero;stroke:none" /><path
         d="m 3184.26,1410.67 -4.44,-2.75 -60.29,96.49 4.4,2.73 60.33,-96.47 0,0 z m -1366.69,2187.14 60.3,-96.46 -4.42,-2.77 -60.3,96.46 4.42,2.77 0,0"
         id="path40"
         style="fill:#6b3920;fill-opacity:1;fill-rule:nonzero;stroke:none" /><path
         d="m 3221.93,1435.23 -4.27,-2.91 -63.66,94.27 4.32,2.99 63.61,-94.35 0,0 z m -1442.18,2138.17 63.64,-94.36 -4.3,-2.89 -63.65,94.31 4.31,2.94 0,0"
         id="path42"
         style="fill:#6b3920;fill-opacity:1;fill-rule:nonzero;stroke:none" /><path
         d="m 3258.71,1461.22 -4.24,-3.1 -66.85,92.05 4.22,3.1 66.87,-92.05 0,0 z m -1515.82,2086.34 66.87,-92.04 -4.2,-3.07 -66.88,92.05 4.21,3.06 0,0"
         id="path44"
         style="fill:#6b3920;fill-opacity:1;fill-rule:nonzero;stroke:none" /><path
         d="m 3294.63,1488.33 c -1.37,-1.05 -2.77,-2.11 -4.14,-3.16 l -70.06,89.65 c 1.39,1.05 2.79,2.1 4.16,3.16 l 70.04,-89.65 0,0 z m -1587.73,2032.22 70.03,-89.69 c -1.36,-1.05 -2.75,-2.06 -4.13,-3.15 l -70.06,89.65 c 1.37,1.09 2.79,2.1 4.16,3.19 l 0,0"
         id="path46"
         style="fill:#6b3920;fill-opacity:1;fill-rule:nonzero;stroke:none" /><path
         d="m 3329.47,1516.81 -3.96,-3.36 -73.13,87.13 3.97,3.4 73.12,-87.17 0,0 z m -1657.57,1975.43 73.12,-87.14 -3.99,-3.4 -73.1,87.22 3.97,3.32 0,0"
         id="path48"
         style="fill:#6b3920;fill-opacity:1;fill-rule:nonzero;stroke:none" /><path
         d="m 3363.4,1546.38 c -1.29,-1.17 -2.58,-2.31 -3.91,-3.48 l -76.09,84.57 3.87,3.44 76.13,-84.53 0,0 z m -1725.5,1916.37 76.1,-84.53 -3.89,-3.45 -76.12,84.53 3.91,3.45 0,0"
         id="path50"
         style="fill:#6b3920;fill-opacity:1;fill-rule:nonzero;stroke:none" /><path
         d="m 3396.23,1577.14 -3.77,-3.61 -78.98,81.83 3.71,3.65 79.04,-81.87 0,0 z m -1791.31,1855.02 79.02,-81.88 -3.74,-3.61 -79.02,81.84 c 1.24,1.21 2.48,2.43 3.74,3.65 l 0,0"
         id="path52"
         style="fill:#6b3920;fill-opacity:1;fill-rule:nonzero;stroke:none" /><path
         d="m 3427.97,1609.01 c -1.17,-1.25 -2.4,-2.48 -3.61,-3.69 l -81.84,79.03 c 1.21,1.21 2.44,2.48 3.65,3.73 l 81.8,-79.07 0,0 z m -1854.94,1791.39 81.84,-79.02 -3.65,-3.74 -81.82,79.02 3.63,3.74 0,0"
         id="path54"
         style="fill:#6b3920;fill-opacity:1;fill-rule:nonzero;stroke:none" /><path
         d="m 3458.63,1642 c -1.17,-1.27 -2.3,-2.61 -3.43,-3.86 l -84.57,76.13 3.45,3.9 84.55,-76.17 0,0 z m -1916.42,1725.54 84.55,-76.12 -3.44,-3.87 -84.53,76.09 3.42,3.9 0,0"
         id="path56"
         style="fill:#6b3920;fill-opacity:1;fill-rule:nonzero;stroke:none" /><path
         d="m 3488.09,1676.07 -3.36,-4.03 -87.13,73.15 3.34,3.98 87.15,-73.1 0,0 z m -1975.43,1657.57 87.17,-73.14 -3.4,-3.95 -87.13,73.1 3.36,3.99 0,0"
         id="path58"
         style="fill:#6b3920;fill-opacity:1;fill-rule:nonzero;stroke:none" /><path
         d="m 3516.39,1711.03 c -1.08,-1.39 -2.13,-2.78 -3.19,-4.12 l -89.65,70.03 c 1.1,1.39 2.11,2.78 3.21,4.16 l 89.63,-70.07 0,0 z m -2032.22,1587.75 89.65,-70.04 c -1.04,-1.39 -2.1,-2.77 -3.14,-4.11 l -89.66,70.02 c 1.06,1.35 2.08,2.78 3.15,4.13 l 0,0"
         id="path60"
         style="fill:#6b3920;fill-opacity:1;fill-rule:nonzero;stroke:none" /><path
         d="m 3543.42,1747.02 -3.11,-4.2 -92.03,66.9 3.09,4.16 92.05,-66.86 0,0 z m -2086.36,1515.83 92.05,-66.84 -3.07,-4.24 -92.05,66.88 3.07,4.2 0,0"
         id="path62"
         style="fill:#6b3920;fill-opacity:1;fill-rule:nonzero;stroke:none" /><path
         d="m 3569.24,1783.88 -2.93,-4.3 -94.36,63.65 2.95,4.28 94.34,-63.63 0,0 z m -2138.17,1442.25 94.34,-63.64 -2.92,-4.33 -94.32,63.61 2.9,4.36 0,0"
         id="path64"
         style="fill:#6b3920;fill-opacity:1;fill-rule:nonzero;stroke:none" /><path
         d="m 3593.61,1821.73 -2.73,-4.41 -96.49,60.29 2.78,4.39 96.44,-60.27 0,0 z m -2187.09,1366.68 96.47,-60.29 -2.77,-4.41 -96.46,60.29 2.76,4.41 0,0"
         id="path66"
         style="fill:#6b3920;fill-opacity:1;fill-rule:nonzero;stroke:none" /><path
         d="m 3616.86,1860.28 c -0.88,-1.5 -1.78,-2.96 -2.66,-4.49 l -98.54,56.94 c 0.86,1.46 1.78,2.93 2.66,4.45 l 98.54,-56.9 0,0 z m -2233.7,1289.6 98.57,-56.88 c -0.9,-1.51 -1.77,-2.98 -2.68,-4.45 l -98.54,56.88 c 0.86,1.51 1.79,2.98 2.65,4.45 l 0,0"
         id="path68"
         style="fill:#6b3920;fill-opacity:1;fill-rule:nonzero;stroke:none" /><path
         d="m 3638.57,1899.7 -2.44,-4.63 -100.45,53.44 2.41,4.63 100.48,-53.44 0,0 z m -2277.32,1210.86 100.47,-53.4 -2.44,-4.62 -100.47,53.44 2.44,4.58 0,0"
         id="path70"
         style="fill:#6b3920;fill-opacity:1;fill-rule:nonzero;stroke:none" /><path
         d="m 3659,1939.78 -2.32,-4.63 -102.29,49.88 2.35,4.65 102.26,-49.9 0,0 z m -2318.27,1130.74 102.25,-49.86 -2.31,-4.67 -102.28,49.87 2.34,4.66 0,0"
         id="path72"
         style="fill:#6b3920;fill-opacity:1;fill-rule:nonzero;stroke:none" /><path
         d="m 3677.93,1980.66 c -0.68,-1.61 -1.39,-3.19 -2.05,-4.79 l -103.99,46.33 c 0.73,1.56 1.39,3.16 2.09,4.71 l 103.95,-46.25 0,0 z m -2356.38,1049.11 103.93,-46.25 c -0.71,-1.6 -1.38,-3.2 -2.06,-4.79 l -103.97,46.3 2.1,4.74 0,0"
         id="path74"
         style="fill:#6b3920;fill-opacity:1;fill-rule:nonzero;stroke:none" /><path
         d="m 3695.45,2022.12 -1.93,-4.82 -105.53,42.63 1.97,4.83 105.49,-42.64 0,0 z m -2391.57,966.27 105.51,-42.64 -1.97,-4.79 -105.49,42.6 1.95,4.83 0,0"
         id="path76"
         style="fill:#6b3920;fill-opacity:1;fill-rule:nonzero;stroke:none" /><path
         d="m 3711.54,2064.17 c -0.58,-1.64 -1.13,-3.28 -1.72,-4.86 l -106.97,38.88 1.78,4.89 106.91,-38.91 0,0 z m -2423.98,882.25 106.94,-38.9 c -0.57,-1.64 -1.16,-3.28 -1.74,-4.92 l -106.93,38.9 c 0.59,1.69 1.14,3.33 1.73,4.92 l 0,0"
         id="path78"
         style="fill:#6b3920;fill-opacity:1;fill-rule:nonzero;stroke:none" /><path
         d="m 3726.07,2106.77 -1.58,-4.96 -108.24,35.17 1.6,4.96 108.22,-35.17 0,0 z m -2453.17,797.09 108.22,-35.16 -1.59,-4.96 -108.23,35.17 1.6,4.95 0,0"
         id="path80"
         style="fill:#6b3920;fill-opacity:1;fill-rule:nonzero;stroke:none" /><path
         d="m 3739.24,2149.84 c -0.47,-1.72 -1,-3.36 -1.49,-5 l -109.39,31.34 c 0.51,1.68 1.02,3.32 1.48,5 l 109.4,-31.34 0,0 z m -2479.62,711.01 109.4,-31.39 c -0.46,-1.64 -0.99,-3.28 -1.47,-5 l -109.4,31.39 c 0.47,1.68 1.02,3.32 1.47,5 l 0,0"
         id="path82"
         style="fill:#6b3920;fill-opacity:1;fill-rule:nonzero;stroke:none" /><path
         d="m 3750.68,2193.35 -1.25,-5.04 -110.41,27.52 1.23,5.04 110.43,-27.52 0,0 z m -2502.74,624.05 110.41,-27.56 -1.24,-5.03 -110.41,27.51 1.24,5.08 0,0"
         id="path84"
         style="fill:#6b3920;fill-opacity:1;fill-rule:nonzero;stroke:none" /><path
         d="m 3760.74,2237.22 -1.11,-5.08 -111.31,23.69 1.09,5.04 111.33,-23.65 0,0 z m -2522.96,536.28 111.33,-23.65 c -0.38,-1.68 -0.8,-3.36 -1.14,-5.08 l -111.3,23.69 1.11,5.04 0,0"
         id="path86"
         style="fill:#6b3920;fill-opacity:1;fill-rule:nonzero;stroke:none" /><path
         d="m 3769.18,2281.47 c -0.29,-1.74 -0.57,-3.46 -0.86,-5.18 l -112.07,19.79 c 0.29,1.71 0.59,3.45 0.86,5.17 l 112.07,-19.78 0,0 z m -2540.1,447.92 112.07,-19.79 c -0.32,-1.72 -0.57,-3.4 -0.86,-5.17 l -112.05,19.79 c 0.27,1.72 0.51,3.45 0.84,5.17 l 0,0"
         id="path88"
         style="fill:#6b3920;fill-opacity:1;fill-rule:nonzero;stroke:none" /><path
         d="m 3776.04,2325.96 -0.73,-5.18 -112.67,15.84 0.72,5.12 112.68,-15.78 0,0 z m -2553.97,358.94 112.67,-15.84 -0.71,-5.17 -112.68,15.84 0.72,5.17 0,0"
         id="path90"
         style="fill:#6b3920;fill-opacity:1;fill-rule:nonzero;stroke:none" /><path
         d="m 3781.46,2370.61 c -0.17,-1.72 -0.41,-3.44 -0.6,-5.18 l -113.13,11.91 c 0.18,1.71 0.41,3.43 0.61,5.15 l 113.12,-11.88 0,0 z m -2564.96,269.59 113.15,-11.89 c -0.16,-1.72 -0.42,-3.4 -0.58,-5.16 l -113.19,11.88 c 0.2,1.72 0.42,3.45 0.62,5.17 l 0,0"
         id="path92"
         style="fill:#6b3920;fill-opacity:1;fill-rule:nonzero;stroke:none" /><path
         d="m 3785.2,2415.48 -0.34,-5.22 -113.51,7.95 0.33,5.2 113.52,-7.93 0,0 z m -2572.66,179.89 113.5,-7.94 -0.33,-5.16 -113.5,7.89 0.33,5.21 0,0"
         id="path94"
         style="fill:#6b3920;fill-opacity:1;fill-rule:nonzero;stroke:none" /><path
         d="m 3787.42,2460.43 -0.19,-5.2 -113.66,3.98 0.12,5.22 113.73,-4 0,0 z m -2577.25,89.99 113.69,-3.95 -0.17,-5.17 -113.72,3.95 0.2,5.17 0,0"
         id="path96"
         style="fill:#6b3920;fill-opacity:1;fill-rule:nonzero;stroke:none" /><path
         d="m 3788.13,2505.43 0.03,-2.57 -0.03,-2.6 -113.77,0 0.05,2.6 -0.05,2.57 113.77,0 0,0 z m -2578.88,0 113.74,0 -0.02,-2.57 0.02,-2.6 -113.74,0 -0.05,2.6 0.05,2.57 0,0"
         id="path98"
         style="fill:#6b3920;fill-opacity:1;fill-rule:nonzero;stroke:none" /><path
         d="m 3787.23,2550.42 0.19,-5.17 -113.73,-3.95 -0.12,5.17 113.66,3.95 0,0 z m -2577.26,-89.99 113.72,4 0.17,-5.22 -113.69,-3.98 -0.2,5.2 0,0"
         id="path100"
         style="fill:#6b3920;fill-opacity:1;fill-rule:nonzero;stroke:none" /><path
         d="m 3784.86,2595.37 0.34,-5.21 -113.52,-7.89 -0.33,5.16 113.51,7.94 0,0 z m -2572.65,-179.89 113.5,7.93 0.33,-5.2 -113.5,-7.95 -0.33,5.22 0,0"
         id="path102"
         style="fill:#6b3920;fill-opacity:1;fill-rule:nonzero;stroke:none" /><path
         d="m 3780.9,2640.2 c 0.17,-1.72 0.43,-3.45 0.56,-5.13 l -113.12,-11.89 c -0.2,1.73 -0.41,3.41 -0.57,5.13 l 113.13,11.89 0,0 z m -2565.02,-269.55 113.19,11.84 c 0.16,-1.72 0.42,-3.44 0.58,-5.12 l -113.13,-11.94 c -0.22,1.78 -0.42,3.46 -0.64,5.22 l 0,0"
         id="path104"
         style="fill:#6b3920;fill-opacity:1;fill-rule:nonzero;stroke:none" /><path
         d="m 3775.31,2684.86 0.73,-5.13 -112.68,-15.84 -0.72,5.13 112.67,15.84 0,0 z m -2553.96,-358.9 112.68,15.78 0.71,-5.12 -112.67,-15.84 -0.72,5.18 0,0"
         id="path106"
         style="fill:#6b3920;fill-opacity:1;fill-rule:nonzero;stroke:none" /><path
         d="m 3768.32,2729.39 c 0.29,-1.72 0.57,-3.45 0.86,-5.17 l -112.07,-19.79 c -0.27,1.77 -0.57,3.45 -0.86,5.17 l 112.07,19.79 0,0 z m -2540.08,-447.92 112.05,19.78 c 0.29,-1.72 0.54,-3.46 0.86,-5.17 l -112.07,-19.75 c -0.33,1.68 -0.57,3.4 -0.84,5.14 l 0,0"
         id="path108"
         style="fill:#6b3920;fill-opacity:1;fill-rule:nonzero;stroke:none" /><path
         d="m 3759.63,2773.5 1.11,-5.08 -111.33,-23.65 c -0.33,1.72 -0.72,3.4 -1.09,5.08 l 111.31,23.65 0,0 z m -2522.96,-536.28 111.3,23.65 c 0.34,-1.68 0.76,-3.36 1.14,-5.04 l -111.33,-23.69 -1.11,5.08 0,0"
         id="path110"
         style="fill:#6b3920;fill-opacity:1;fill-rule:nonzero;stroke:none" /><path
         d="m 3749.43,2817.36 1.25,-5.04 -110.39,-27.51 -1.27,5.03 110.41,27.52 0,0 z m -2502.73,-624.01 110.43,27.52 1.22,-5.04 -110.41,-27.52 -1.24,5.04 0,0"
         id="path112"
         style="fill:#6b3920;fill-opacity:1;fill-rule:nonzero;stroke:none" /><path
         d="m 3737.75,2860.85 c 0.49,-1.68 1.02,-3.32 1.49,-5 l -109.4,-31.39 c -0.46,1.72 -0.97,3.36 -1.48,5 l 109.39,31.39 0,0 z m -2479.6,-711.01 109.4,31.34 c 0.48,-1.68 1.01,-3.28 1.47,-5 l -109.38,-31.34 c -0.47,1.64 -1.02,3.28 -1.49,5 l 0,0"
         id="path114"
         style="fill:#6b3920;fill-opacity:1;fill-rule:nonzero;stroke:none" /><path
         d="m 3724.49,2903.86 1.58,-4.95 -108.22,-35.17 -1.58,4.96 108.22,35.16 0,0 z m -2453.17,-797.09 108.21,35.12 1.59,-4.91 -108.22,-35.17 -1.58,4.96 0,0"
         id="path116"
         style="fill:#6b3920;fill-opacity:1;fill-rule:nonzero;stroke:none" /><path
         d="m 3709.82,2946.42 c 0.63,-1.59 1.14,-3.27 1.74,-4.92 l -106.93,-38.9 c -0.59,1.64 -1.15,3.28 -1.78,4.92 l 106.97,38.9 0,0 z m -2423.99,-882.25 106.93,38.91 1.77,-4.89 -106.95,-38.88 c -0.61,1.58 -1.16,3.22 -1.75,4.86 l 0,0"
         id="path118"
         style="fill:#6b3920;fill-opacity:1;fill-rule:nonzero;stroke:none" /><path
         d="m 3693.52,2988.39 1.97,-4.83 -105.53,-42.6 -1.97,4.79 105.53,42.64 0,0 z m -2391.59,-966.27 105.49,42.64 1.97,-4.83 -105.49,-42.63 -1.97,4.82 0,0"
         id="path120"
         style="fill:#6b3920;fill-opacity:1;fill-rule:nonzero;stroke:none" /><path
         d="m 3675.88,3029.77 c 0.7,-1.6 1.37,-3.15 2.05,-4.74 l -103.93,-46.3 -2.09,4.79 103.97,46.25 0,0 z m -2356.43,-1049.11 103.97,46.25 c 0.72,-1.55 1.37,-3.15 2.06,-4.75 l -103.93,-46.29 c -0.72,1.6 -1.37,3.18 -2.1,4.79 l 0,0"
         id="path122"
         style="fill:#6b3920;fill-opacity:1;fill-rule:nonzero;stroke:none" /><path
         d="m 3656.68,3070.52 2.34,-4.66 -102.28,-49.87 -2.33,4.67 102.27,49.86 0,0 z m -2318.27,-1130.7 102.26,49.86 2.31,-4.61 -102.25,-49.92 -2.32,4.67 0,0"
         id="path124"
         style="fill:#6b3920;fill-opacity:1;fill-rule:nonzero;stroke:none" /><path
         d="m 3636.15,3110.56 2.42,-4.62 -100.43,-53.4 -2.46,4.62 100.47,53.4 0,0 z m -2277.3,-1210.86 100.45,53.44 2.42,-4.63 -100.47,-53.44 -2.4,4.63 0,0"
         id="path126"
         style="fill:#6b3920;fill-opacity:1;fill-rule:nonzero;stroke:none" /><path
         d="m 3614.2,3149.84 c 0.88,-1.47 1.82,-2.94 2.69,-4.45 l -98.55,-56.88 c -0.86,1.51 -1.82,2.98 -2.68,4.49 l 98.54,56.84 0,0 z m -2233.67,-1289.59 98.56,56.89 c 0.87,-1.48 1.76,-2.95 2.64,-4.41 l -98.53,-56.94 c -0.88,1.49 -1.79,2.99 -2.67,4.46 l 0,0"
         id="path128"
         style="fill:#6b3920;fill-opacity:1;fill-rule:nonzero;stroke:none" /><path
         d="m 3590.88,3188.41 2.77,-4.41 -96.48,-60.33 -2.78,4.41 96.49,60.33 0,0 z m -2187.12,-1366.68 96.46,60.27 2.77,-4.45 -96.47,-60.23 -2.76,4.41 0,0"
         id="path130"
         style="fill:#6b3920;fill-opacity:1;fill-rule:nonzero;stroke:none" /><path
         d="m 3566.31,3226.09 2.93,-4.32 -94.3,-63.61 -2.95,4.29 94.32,63.64 0,0 z m -2138.14,-1442.21 94.36,63.63 2.89,-4.32 -94.3,-63.65 -2.95,4.34 0,0"
         id="path132"
         style="fill:#6b3920;fill-opacity:1;fill-rule:nonzero;stroke:none" /><path
         d="m 3540.35,3262.85 3.07,-4.2 -92.05,-66.88 -3.05,4.2 92.03,66.88 0,0 z m -2086.34,-1515.83 92.03,66.86 3.09,-4.16 -92.05,-66.9 -3.07,4.2 0,0"
         id="path134"
         style="fill:#6b3920;fill-opacity:1;fill-rule:nonzero;stroke:none" /><path
         d="m 3513.22,3298.78 c 1.08,-1.35 2.09,-2.78 3.19,-4.13 l -89.65,-70.02 c -1.06,1.34 -2.11,2.72 -3.17,4.11 l 89.63,70.04 0,0 z m -2032.2,-1587.75 89.66,70.07 c 1.04,-1.38 2.1,-2.77 3.14,-4.16 l -89.63,-70.03 c -1.09,1.38 -2.11,2.73 -3.17,4.12 l 0,0"
         id="path136"
         style="fill:#6b3920;fill-opacity:1;fill-rule:nonzero;stroke:none" /><path
         d="m 3484.73,3333.6 3.4,-3.95 -87.17,-73.1 -3.36,3.95 87.13,73.1 0,0 z M 1509.3,1676.07 l 87.13,73.1 3.4,-3.98 -87.17,-73.15 -3.36,4.03 0,0"
         id="path138"
         style="fill:#6b3920;fill-opacity:1;fill-rule:nonzero;stroke:none" /><path
         d="m 3455.2,3367.54 3.43,-3.9 -84.55,-76.09 -3.44,3.87 84.56,76.12 0,0 z M 1538.79,1642 l 84.54,76.17 3.43,-3.9 -84.53,-76.17 -3.44,3.9 0,0"
         id="path140"
         style="fill:#6b3920;fill-opacity:1;fill-rule:nonzero;stroke:none" /><path
         d="m 3424.39,3400.36 3.62,-3.7 -81.84,-79.07 -3.61,3.74 81.83,79.03 0,0 z m -1854.97,-1791.35 81.83,79.07 3.62,-3.73 -81.84,-79.03 c -1.18,1.21 -2.42,2.44 -3.61,3.69 l 0,0"
         id="path142"
         style="fill:#6b3920;fill-opacity:1;fill-rule:nonzero;stroke:none" /><path
         d="m 3392.5,3432.12 c 1.27,-1.22 2.48,-2.44 3.73,-3.61 l -79,-81.84 c -1.27,1.22 -2.5,2.43 -3.75,3.61 l 79.02,81.84 0,0 z m -1791.32,-1854.98 79.04,81.87 3.72,-3.65 -79.02,-81.83 -3.74,3.61 0,0"
         id="path144"
         style="fill:#6b3920;fill-opacity:1;fill-rule:nonzero;stroke:none" /><path
         d="m 3359.53,3462.75 3.87,-3.45 -76.13,-84.53 c -1.25,1.18 -2.56,2.31 -3.87,3.45 l 76.13,84.53 0,0 z m -1725.54,-1916.37 76.12,84.53 c 1.3,-1.13 2.61,-2.27 3.89,-3.44 l -76.1,-84.57 -3.91,3.48 0,0"
         id="path146"
         style="fill:#6b3920;fill-opacity:1;fill-rule:nonzero;stroke:none" /><path
         d="m 3325.53,3492.24 3.96,-3.32 -73.14,-87.22 -3.95,3.4 73.13,87.14 0,0 z m -1657.6,-1975.43 73.15,87.17 3.94,-3.4 -73.12,-87.13 -3.97,3.36 0,0"
         id="path148"
         style="fill:#6b3920;fill-opacity:1;fill-rule:nonzero;stroke:none" /><path
         d="m 3290.53,3520.51 c 1.36,-1.05 2.77,-2.06 4.14,-3.15 l -70.08,-89.65 c -1.37,1.05 -2.73,2.1 -4.12,3.15 l 70.06,89.65 0,0 z m -1587.75,-2032.24 70.06,89.71 c 1.34,-1.06 2.73,-2.11 4.11,-3.2 l -70.03,-89.61 c -1.39,1.05 -2.77,2.11 -4.14,3.1 l 0,0"
         id="path150"
         style="fill:#6b3920;fill-opacity:1;fill-rule:nonzero;stroke:none" /><path
         d="m 3254.55,3547.53 4.18,-3.07 -66.89,-92.01 -4.18,3.07 66.89,92.01 0,0 z m -1515.87,-2086.35 66.88,92.05 4.2,-3.06 -66.84,-92.05 -4.24,3.06 0,0"
         id="path152"
         style="fill:#6b3920;fill-opacity:1;fill-rule:nonzero;stroke:none" /><path
         d="m 3217.66,3573.36 4.33,-2.9 -63.63,-94.31 -4.32,2.89 63.62,94.32 0,0 z m -1442.22,-2138.13 63.65,94.35 4.3,-2.99 -63.64,-94.27 -4.31,2.91 0,0"
         id="path154"
         style="fill:#6b3920;fill-opacity:1;fill-rule:nonzero;stroke:none" /><path
         d="m 3179.82,3597.81 4.44,-2.77 -60.3,-96.5 -4.43,2.81 60.29,96.46 0,0 z m -1366.65,-2187.14 60.28,96.47 4.42,-2.77 -60.3,-96.45 -4.4,2.75 0,0"
         id="path156"
         style="fill:#6b3920;fill-opacity:1;fill-rule:nonzero;stroke:none" /><path
         d="m 3141.29,3621 c 1.5,-0.88 2.97,-1.76 4.49,-2.6 l -56.91,-98.56 c -1.49,0.84 -2.97,1.76 -4.48,2.6 l 56.9,98.56 0,0 z m -1289.6,-2233.66 56.89,98.51 c 1.46,-0.84 2.94,-1.78 4.45,-2.62 l -56.88,-98.55 c -1.5,0.84 -2.97,1.76 -4.46,2.66 l 0,0"
         id="path158"
         style="fill:#6b3920;fill-opacity:1;fill-rule:nonzero;stroke:none" /><path
         d="m 3101.84,3642.72 4.61,-2.44 -53.42,-100.44 -4.59,2.43 53.4,100.45 0,0 z m -1210.87,-2277.36 53.42,100.53 4.6,-2.44 -53.42,-100.49 -4.6,2.4 0,0"
         id="path160"
         style="fill:#6b3920;fill-opacity:1;fill-rule:nonzero;stroke:none" /><path
         d="m 3061.76,3663.14 4.65,-2.31 -49.89,-102.25 -4.68,2.3 49.92,102.26 0,0 z m -1130.75,-2318.29 49.91,102.31 4.62,-2.36 -49.82,-102.25 -4.71,2.3 0,0"
         id="path162"
         style="fill:#6b3920;fill-opacity:1;fill-rule:nonzero;stroke:none" /><path
         d="m 3020.92,3682.13 c 1.6,-0.71 3.14,-1.39 4.74,-2.1 l -46.28,-103.98 c -1.57,0.76 -3.17,1.39 -4.75,2.1 l 46.29,103.98 0,0 z m -1049.16,-2356.47 46.3,103.98 4.75,-2.07 -46.3,-103.98 c -1.55,0.72 -3.16,1.38 -4.75,2.07 l 0,0"
         id="path164"
         style="fill:#6b3920;fill-opacity:1;fill-rule:nonzero;stroke:none" /><path
         d="m 2979.41,3699.65 4.83,-1.98 -42.64,-105.53 -4.78,1.97 42.59,105.54 0,0 z m -966.27,-2391.59 42.65,105.49 4.83,-1.98 -42.65,-105.5 -4.83,1.99 0,0"
         id="path166"
         style="fill:#6b3920;fill-opacity:1;fill-rule:nonzero;stroke:none" /><path
         d="m 2937.4,3715.69 c 1.64,-0.54 3.28,-1.13 4.89,-1.71 l -38.93,-106.93 -4.86,1.73 38.9,106.91 0,0 z m -882.29,-2423.94 38.95,106.91 4.87,-1.75 -38.91,-106.92 c -1.63,0.59 -3.27,1.13 -4.91,1.76 l 0,0"
         id="path168"
         style="fill:#6b3920;fill-opacity:1;fill-rule:nonzero;stroke:none" /><path
         d="m 2894.79,3730.23 4.92,-1.6 -35.14,-108.21 -4.94,1.59 35.16,108.22 0,0 z m -797.1,-2453.19 35.19,108.26 4.91,-1.64 -35.14,-108.22 -4.96,1.6 0,0"
         id="path170"
         style="fill:#6b3920;fill-opacity:1;fill-rule:nonzero;stroke:none" /><path
         d="m 2851.74,3743.42 c 1.68,-0.5 3.32,-1.01 4.98,-1.51 l -31.39,-109.4 c -1.66,0.51 -3.3,1.01 -4.98,1.51 l 31.39,109.4 0,0 z m -711.03,-2479.66 31.37,109.45 c 1.67,-0.5 3.29,-1.05 5,-1.52 l -31.39,-109.43 c -1.68,0.54 -3.32,1.05 -4.98,1.5 l 0,0"
         id="path172"
         style="fill:#6b3920;fill-opacity:1;fill-rule:nonzero;stroke:none" /><path
         d="m 2808.18,3754.85 5.08,-1.22 -27.56,-110.4 -5.06,1.21 27.54,110.41 0,0 z m -624.01,-2502.77 27.56,110.45 5.04,-1.25 -27.56,-110.41 -5.04,1.21 0,0"
         id="path174"
         style="fill:#6b3920;fill-opacity:1;fill-rule:nonzero;stroke:none" /><path
         d="m 2764.32,3764.89 5.07,-1.09 -23.66,-111.33 c -1.7,0.38 -3.4,0.75 -5.08,1.13 l 23.67,111.29 0,0 z m -536.29,-2522.97 23.65,111.29 5.09,-1.09 -23.66,-111.29 -5.08,1.09 0,0"
         id="path176"
         style="fill:#6b3920;fill-opacity:1;fill-rule:nonzero;stroke:none" /><path
         d="m 2720.11,3773.34 c 1.7,-0.3 3.4,-0.55 5.13,-0.89 l -19.76,-112.04 c -1.7,0.29 -3.44,0.54 -5.16,0.84 l 19.79,112.09 0,0 z m -447.91,-2540.15 19.75,112.07 c 1.71,-0.29 3.45,-0.54 5.14,-0.84 l -19.78,-112.07 c -1.68,0.3 -3.4,0.53 -5.11,0.84 l 0,0"
         id="path178"
         style="fill:#6b3920;fill-opacity:1;fill-rule:nonzero;stroke:none" /><path
         d="m 2675.62,3780.23 5.13,-0.72 -15.84,-112.72 -5.13,0.76 15.84,112.68 0,0 z m -358.95,-2554.03 15.84,112.68 5.13,-0.71 -15.82,-112.67 -5.15,0.7 0,0"
         id="path180"
         style="fill:#6b3920;fill-opacity:1;fill-rule:nonzero;stroke:none" /><path
         d="m 2630.93,3785.65 c 1.72,-0.17 3.44,-0.42 5.15,-0.63 l -11.85,-113.14 c -1.76,0.21 -3.46,0.42 -5.2,0.63 l 11.9,113.14 0,0 z m -269.6,-2564.98 11.9,113.13 c 1.72,-0.16 3.44,-0.41 5.16,-0.59 l -11.89,-113.14 c -1.72,0.18 -3.44,0.43 -5.17,0.6 l 0,0"
         id="path182"
         style="fill:#6b3920;fill-opacity:1;fill-rule:nonzero;stroke:none" /><path
         d="m 2586.04,3789.3 5.2,-0.3 -7.97,-113.47 -5.15,0.3 7.92,113.47 0,0 z m -179.88,-2572.63 7.94,113.48 5.17,-0.3 -7.92,-113.51 c -1.75,0.12 -3.46,0.25 -5.19,0.33 l 0,0"
         id="path184"
         style="fill:#6b3920;fill-opacity:1;fill-rule:nonzero;stroke:none" /><path
         d="m 2541.1,3791.57 5.22,-0.17 -4.01,-113.72 -5.15,0.21 3.94,113.68 0,0 z m -90,-2577.24 3.97,113.71 5.19,-0.2 -3.96,-113.73 -5.2,0.22 0,0"
         id="path186"
         style="fill:#6b3920;fill-opacity:1;fill-rule:nonzero;stroke:none" /><path
         d="m 2498.72,3792.33 2.6,-0.05 0,-113.76 -2.6,0.04 -2.64,-0.04 0,113.76 2.64,0.05 0,0 z m -2.64,-2578.94 0,113.77 2.64,-0.04 2.6,0.04 0,-113.77 -2.6,-0.04 -2.64,0.04 0,0"
         id="path188"
         style="fill:#6b3920;fill-opacity:1;fill-rule:nonzero;stroke:none" /><path
         d="m 2451.1,3791.36 5.2,0.21 3.96,-113.68 -5.19,-0.21 -3.97,113.68 0,0 z m 90,-2577.25 -3.94,113.73 5.15,0.16 4.01,-113.67 -5.22,-0.22 0,0"
         id="path190"
         style="fill:#6b3920;fill-opacity:1;fill-rule:nonzero;stroke:none" /><path
         d="m 2406.16,3789 c 1.73,0.13 3.44,0.21 5.19,0.34 l 7.92,-113.51 c -1.72,-0.13 -3.44,-0.21 -5.17,-0.3 l -7.94,113.47 0,0 z m 179.88,-2572.62 -7.92,113.51 5.21,0.26 7.93,-113.48 -5.22,-0.29 0,0"
         id="path192"
         style="fill:#6b3920;fill-opacity:1;fill-rule:nonzero;stroke:none" /><path
         d="m 2361.33,3785.02 c 1.73,0.21 3.45,0.46 5.13,0.63 l 11.93,-113.14 c -1.74,-0.21 -3.44,-0.42 -5.16,-0.63 l -11.9,113.14 0,0 z m 269.6,-2564.95 -11.9,113.14 c 1.72,0.18 3.44,0.43 5.18,0.59 l 11.87,-113.13 c -1.71,-0.17 -3.43,-0.42 -5.15,-0.6 l 0,0"
         id="path194"
         style="fill:#6b3920;fill-opacity:1;fill-rule:nonzero;stroke:none" /><path
         d="m 2316.67,3779.47 5.15,0.76 15.82,-112.68 -5.16,-0.76 -15.81,112.68 0,0 z m 358.93,-2553.97 -15.84,112.67 5.15,0.71 15.84,-112.68 -5.15,-0.7 0,0"
         id="path196"
         style="fill:#6b3920;fill-opacity:1;fill-rule:nonzero;stroke:none" /><path
         d="m 2272.1,3772.92 19.85,-112.51 c 1.71,0.33 3.43,0.54 5.13,0.84 l -19.85,112.51 c -1.69,-0.26 -3.41,-0.51 -5.13,-0.84 z m 433.36,-2427.66 c -1.68,-0.29 -3.44,-0.54 -5.14,-0.84 l 19.83,-112.53 c 1.73,0.33 3.45,0.54 5.15,0.87 l -19.84,112.5"
         id="path198"
         style="fill:#6b3920;fill-opacity:1;fill-rule:nonzero;stroke:none" /><path
         d="m 2263.61,3097.08 -5.76,-2.76 -302.74,700.76 5.43,2.51 303.07,-700.51"
         id="path200"
         style="fill:#6b3920;fill-opacity:1;fill-rule:nonzero;stroke:none" /><path
         d="m 2053.99,2961.7 -4.17,-4.45 -943.78,915.72 4.35,4.29 943.6,-915.56"
         id="path202"
         style="fill:#6b3920;fill-opacity:1;fill-rule:nonzero;stroke:none" /><path
         d="m 1912.34,2756.67 -2.23,-5.82 -709.64,281.61 2.21,5.41 709.66,-281.2"
         id="path204"
         style="fill:#6b3920;fill-opacity:1;fill-rule:nonzero;stroke:none" /><path
         d="m 1904.54,2267.63 2.5,-5.41 -700.82,-302.93 -2.53,5.43 700.85,302.91"
         id="path206"
         style="fill:#6b3920;fill-opacity:1;fill-rule:nonzero;stroke:none" /><path
         d="m 2039.75,2058.08 4.33,-4.34 -917.84,-945.74 -4.61,3.87 918.12,946.21"
         id="path208"
         style="fill:#6b3920;fill-opacity:1;fill-rule:nonzero;stroke:none" /><path
         d="m 2245.17,1916.42 5.34,-2.39 -281.53,-709.49 -5.82,2.23 282.01,709.65"
         id="path210"
         style="fill:#6b3920;fill-opacity:1;fill-rule:nonzero;stroke:none" /><path
         d="m 2733.74,1908.45 5.61,2.87 302.72,-701.19 -5.59,-2.01 -302.74,700.33"
         id="path212"
         style="fill:#6b3920;fill-opacity:1;fill-rule:nonzero;stroke:none" /><path
         d="m 2943.48,2043.74 3.88,4.61 939.01,-911.13 -3.89,-4.61 -939,911.13"
         id="path214"
         style="fill:#6b3920;fill-opacity:1;fill-rule:nonzero;stroke:none" /><path
         d="m 3085,2249.27 2.05,5.51 709.84,-281.7 -2.38,-5.32 -709.51,281.51"
         id="path216"
         style="fill:#6b3920;fill-opacity:1;fill-rule:nonzero;stroke:none" /><path
         d="m 3092.68,2737.99 -2.52,5.42 700.84,302.92 2.48,-5.43 -700.8,-302.91"
         id="path218"
         style="fill:#6b3920;fill-opacity:1;fill-rule:nonzero;stroke:none" /><path
         d="m 2943.44,2935.51 -6.31,5.74 939.98,924.26 5.98,-6.27 -939.65,-923.73"
         id="path220"
         style="fill:#6b3920;fill-opacity:1;fill-rule:nonzero;stroke:none" /><path
         d="m 2752.16,3089.11 -5.33,2.36 281.22,709.67 5.84,-2.21 -281.73,-709.82"
         id="path222"
         style="fill:#6b3920;fill-opacity:1;fill-rule:nonzero;stroke:none" /><path
         d="m 2497.06,961.75 c -850.5,0 -1540.005,689.49 -1540.005,1540.01 0,850.52 689.505,1540 1540.005,1540 850.5,0 1540.01,-689.48 1540.01,-1540 0,-850.52 -689.51,-1540.01 -1540.01,-1540.01 z m 0,3293.34 c -968.33,0 -1753.333,-784.99 -1753.333,-1753.33 0,-968.35 785.003,-1753.35 1753.333,-1753.35 968.33,0 1753.33,785 1753.33,1753.35 0,968.34 -785,1753.33 -1753.33,1753.33"
         id="path224"
         style="fill:#ffffff;fill-opacity:1;fill-rule:nonzero;stroke:none" /><path
         d="m 2924.38,1162.2 c -740.57,-235.18 -1531.29,174.45 -1766.45,915 -235.446,740.36 174.46,1531.28 914.93,1766.59 740.25,234.97 1531.28,-174.47 1766.85,-914.97 234.86,-740.76 -174.77,-1531.48 -915.33,-1766.62 z m 585.89,2384.67 c -576.58,558.55 -1496.68,544.36 -2055.54,-32.47 -558.863,-576.45 -544.277,-1496.91 32.33,-2055.44 576.28,-558.769 1496.67,-544.358 2055.52,32.07 558.87,576.44 544.43,1496.82 -32.31,2055.84"
         id="path226"
         style="fill:#6b3920;fill-opacity:1;fill-rule:nonzero;stroke:none" /><path
         d="m 3187.71,1835.17 c -368.88,-380.76 -976.37,-390.35 -1356.83,-21.6 -380.45,369.16 -390.17,976.7 -21.42,1357.17 369.05,380.69 976.54,390.24 1357.16,21.41 380.59,-369.22 389.84,-976.51 21.09,-1356.98 z M 1800.82,3179.13 c -373.46,-385.38 -363.89,-1000.66 21.59,-1373.94 385.45,-373.69 1000.79,-363.97 1373.96,21.19 373.75,385.62 364.02,1000.94 -21.45,1374.26 -385.31,373.61 -1000.64,363.88 -1374.1,-21.51"
         id="path228"
         style="fill:#6b3920;fill-opacity:1;fill-rule:nonzero;stroke:none" /><path
         d="m 3097.01,1923.31 c -320.15,-330.49 -847.52,-339.16 -1178.14,-18.55 -330.36,320.08 -338.51,847.58 -18.23,1177.97 319.97,330.19 847.49,338.39 1177.97,18.23 330.2,-319.97 338.34,-847.47 18.4,-1177.65 z M 1892.92,3089.88 c -324.19,-334.57 -315.84,-868.79 18.73,-1192.6 334.26,-324.46 868.55,-315.92 1193.08,18.49 323.88,334.75 315.68,868.86 -19.05,1192.77 -334.42,324.52 -868.7,315.99 -1192.76,-18.66"
         id="path230"
         style="fill:#6b3920;fill-opacity:1;fill-rule:nonzero;stroke:none" /><path
         d="m 2931.74,2082.98 c -231.65,-239.16 -613.58,-245.25 -853.03,-13.44 -239.15,232.04 -245.11,613.91 -13.29,853.37 231.82,239.06 613.91,245.1 853.35,13.28 239.02,-231.98 245.12,-613.9 12.97,-853.21 z m -871.17,844.4 c -234.49,-241.95 -228.31,-628.18 13.71,-862.54 241.73,-234.17 627.82,-228.27 862.17,13.75 234.94,241.72 228.76,627.95 -13.27,862.29 -242.04,234.34 -628.12,228.45 -862.61,-13.5"
         id="path232"
         style="fill:#6b3920;fill-opacity:1;fill-rule:nonzero;stroke:none" /><path
         d="m 2496.1,4605.22 122.72,-154.33 0,106.99 c 0,14.89 -2.09,25.02 -6.39,30.27 -5.88,7.08 -15.72,10.51 -29.55,10.28 l 0,6.79 82.21,0 0,-6.79 c -10.55,-1.36 -17.6,-3.1 -21.25,-5.21 -3.6,-2.17 -6.41,-5.65 -8.42,-10.52 -2.01,-4.77 -2.99,-13.06 -2.99,-24.82 l 0,-207.18 -6.25,0 -168.26,207.18 0,-158.19 c 0,-14.27 3.24,-23.96 9.79,-28.98 6.54,-5.01 14.06,-7.51 22.53,-7.51 l 5.86,0 0,-6.8 -88.26,0 0,6.8 c 13.69,0.09 23.26,2.94 28.63,8.43 5.36,5.55 8.07,14.85 8.07,28.06 l 0,175.64 -5.33,6.6 c -5.25,6.56 -9.9,10.95 -13.95,13.02 -4.06,2.08 -9.85,3.23 -17.42,3.48 l 0,6.79 88.26,0"
         id="path234"
         style="fill:#6b3920;fill-opacity:1;fill-rule:nonzero;stroke:none" /><path
         d="m 456.215,2701.4 6.789,0 c 0.371,-4.63 1.648,-8.53 3.844,-11.71 2.215,-3.19 5.578,-6.03 10.086,-8.44 1.484,-0.77 10.957,-4.63 28.441,-11.57 l 205.316,-77.97 0,-7.18 -160.363,-61.61 160.363,-67.88 0,-6.86 -203.101,-81.81 c -20.434,-8.28 -32.805,-14.12 -37.082,-17.4 -4.278,-3.32 -6.774,-8.87 -7.504,-16.72 l -6.789,0 0,107.88 6.789,0 c 0.25,-8.67 1.601,-14.45 3.961,-17.37 2.394,-2.83 5.324,-4.27 8.871,-4.27 4.66,0 14.5,2.99 29.539,9.01 l 120.738,48.79 -94.312,39.06 -26.426,-10.28 c -14.422,-5.64 -24.027,-9.97 -28.848,-13.01 -4.847,-3.04 -8.328,-6.55 -10.394,-10.56 -2.102,-3.95 -3.129,-9.79 -3.129,-17.5 l -6.789,0 0,120.53 6.789,0 c 0.117,-8.43 0.781,-14.51 2.008,-18.17 0.863,-2.56 2.343,-4.58 4.347,-6.03 2.02,-1.5 4.289,-2.21 6.864,-2.21 2.8,0 11.414,2.74 25.867,8.24 l 117.777,45.32 -106.59,40.6 c -11.007,4.23 -18.531,6.89 -22.578,7.85 -4.023,1.01 -7.754,1.49 -11.187,1.49 -5.024,0 -8.914,-1.73 -11.797,-5.15 -2.879,-3.43 -4.461,-9.98 -4.711,-19.63 l -6.789,0 0,64.56"
         id="path236"
         style="fill:#6b3920;fill-opacity:1;fill-rule:nonzero;stroke:none" /><path
         d="m 2466.61,427.262 -2.01,82.929 7.5,0 c 3.57,-20.781 12.23,-37.519 26.13,-50.199 13.89,-12.64 28.91,-18.941 45.08,-18.941 12.5,0 22.32,3.281 29.61,9.98 7.25,6.66 10.9,14.309 10.9,23.039 0,5.489 -1.23,10.371 -3.83,14.672 -3.53,5.719 -9.22,11.406 -17.05,17.047 -5.74,4.063 -19.02,11.191 -39.82,21.473 -29.11,14.308 -48.75,27.808 -58.89,40.519 -10.04,12.739 -15.04,27.309 -15.04,43.699 0,20.782 8.07,38.668 24.28,53.668 16.19,14.981 36.81,22.461 61.77,22.461 7.8,0 15.24,-0.757 22.17,-2.359 6.99,-1.648 15.72,-4.59 26.29,-9.008 5.84,-2.48 10.68,-3.691 14.47,-3.691 3.19,0 6.55,1.211 10.12,3.691 3.52,2.438 6.41,6.149 8.59,11.168 l 6.8,0 0,-93.918 -6.8,0 c -5.37,26.418 -15.78,46.578 -31.13,60.469 -15.37,13.879 -31.85,20.82 -49.59,20.82 -13.71,0 -24.67,-3.75 -32.77,-11.179 -8.15,-7.481 -12.21,-16.172 -12.21,-26.09 0,-5.883 1.54,-11.582 4.67,-17.071 3.12,-5.492 7.89,-10.699 14.26,-15.66 6.35,-4.961 17.6,-11.429 33.75,-19.383 22.63,-11.128 38.92,-20.597 48.81,-28.418 9.92,-7.851 17.5,-16.582 22.79,-26.269 5.35,-9.641 8.01,-20.289 8.01,-31.91 0,-19.801 -7.23,-36.68 -21.8,-50.629 -14.57,-13.961 -32.93,-20.91 -55.04,-20.91 -8.09,0 -15.92,0.949 -23.51,2.949 -5.77,1.418 -12.8,4.199 -21.04,8.141 -8.26,3.988 -13.98,5.98 -17.3,5.98 -3.19,0 -5.69,-0.98 -7.52,-2.953 -1.84,-1.969 -3.54,-6.699 -5.16,-14.117 l -5.49,0"
         id="path238"
         style="fill:#6b3920;fill-opacity:1;fill-rule:nonzero;stroke:none" /><path
         d="m 4616.95,2535.07 -101.25,0 0,-4.92 c 0,-15.76 4.94,-27.23 14.87,-34.33 9.92,-7.09 24.51,-11.61 43.84,-13.54 l 0,-6.99 -130.27,0 0,6.99 c 14.18,1.44 25.8,4.52 34.88,9.2 9.03,4.73 15.16,10.23 18.27,16.45 3.12,6.26 4.64,15.28 4.64,27.14 l -70.09,0 c -13.68,0 -22.07,-0.53 -25.12,-1.73 -3.05,-1.17 -5.61,-3.33 -7.54,-6.52 -1.95,-3.18 -2.93,-8.29 -2.93,-15.37 l 0,-14.91 c 0,-23.24 5.39,-41.86 16.15,-55.88 10.74,-13.98 27.17,-24.05 49.16,-30.12 l 0,-6.8 -79.08,11.17 0,215.04 6.82,0 0,-8.24 c 0,-7.23 1.27,-13.02 3.83,-17.46 1.73,-3.18 4.62,-5.64 8.8,-7.33 2.95,-1.35 10.67,-2.02 23.15,-2.02 l 163.63,0 c 11.29,0 18.17,0.34 20.72,0.92 4.3,1.25 7.58,3.47 9.95,6.79 3.41,4.63 5.09,10.99 5.09,19.1 l 0,8.24 6.82,0 0,-208.24 -73.58,0 0,6.96 c 17.99,3.57 30.88,8.51 38.72,14.94 7.83,6.41 13.57,15.53 17.22,27.25 2.23,6.83 3.3,19.7 3.3,38.51 l 0,25.7"
         id="path240"
         style="fill:#6b3920;fill-opacity:1;fill-rule:nonzero;stroke:none" /><path
         d="m 3757.13,1335.28 -28.11,26.8 2.5,2.46 c 8.05,-5.68 16.47,-8.36 25.28,-7.95 8.81,0.43 15.88,3.3 21.19,8.66 4.18,4.1 6.33,8.49 6.54,13.12 0.2,4.61 -1.17,8.38 -4.06,11.23 -1.8,1.82 -3.87,3.01 -6.09,3.57 -3.09,0.73 -6.88,0.73 -11.29,0 -3.27,-0.56 -10,-2.61 -20.36,-6.05 -14.37,-4.92 -25.35,-6.95 -32.91,-6.11 -7.55,0.9 -14.02,4.08 -19.47,9.51 -6.87,6.87 -10.1,15.49 -9.69,25.82 0.38,10.33 4.71,19.65 12.97,27.91 2.6,2.6 5.33,4.78 8.19,6.52 2.81,1.8 6.73,3.69 11.66,5.74 2.71,1.14 4.72,2.35 6.01,3.58 1.08,1.05 1.76,2.6 2.11,4.55 0.35,1.99 0.08,4.2 -0.86,6.6 l 2.29,2.23 31.09,-31.12 -2.28,-2.22 c -10.51,6.95 -20.61,10.21 -30.28,9.71 -9.72,-0.47 -17.48,-3.66 -23.34,-9.56 -4.55,-4.55 -6.95,-9.37 -7.17,-14.55 -0.23,-5.15 1.33,-9.39 4.59,-12.69 1.94,-1.9 4.32,-3.28 7.21,-4.08 2.87,-0.79 6.15,-0.96 9.88,-0.51 3.79,0.51 9.63,2.07 17.66,4.8 11.15,3.79 19.69,6.06 25.57,6.72 5.86,0.69 11.31,0.33 16.23,-1.11 5,-1.45 9.37,-4.1 13.24,-7.91 6.58,-6.56 9.77,-14.61 9.53,-24.04 -0.21,-9.44 -3.94,-17.8 -11.31,-25.16 -2.63,-2.7 -5.58,-4.96 -8.77,-6.8 -2.34,-1.4 -5.56,-2.85 -9.67,-4.26 -4,-1.42 -6.62,-2.65 -7.67,-3.73 -1.08,-1.07 -1.58,-2.26 -1.54,-3.51 0.07,-1.27 1.01,-3.38 3,-6.37 l -1.87,-1.8"
         id="path242"
         style="fill:#6b3920;fill-opacity:1;fill-rule:nonzero;stroke:none" /><path
         d="m 3705.88,1297.22 -33.58,33.55 -1.64,-1.64 c -5.23,-5.23 -7.36,-10.68 -6.42,-16.31 0.92,-5.64 4.28,-11.93 10,-19.02 l -2.29,-2.3 -43.1,43.14 2.24,2.3 c 5.22,-4.18 10.06,-7.03 14.61,-8.45 4.57,-1.43 8.4,-1.62 11.53,-0.61 3.08,1.02 6.56,3.5 10.52,7.44 l -23.2,23.21 c -4.55,4.57 -7.5,7.13 -8.91,7.77 -1.4,0.61 -2.96,0.68 -4.68,0.31 -1.7,-0.41 -3.67,-1.77 -6.06,-4.12 l -4.94,-4.92 c -7.67,-7.7 -12.09,-15.65 -13.14,-23.85 -1.04,-8.2 1.01,-16.97 6.31,-26.29 l -2.25,-2.22 -22.5,29.88 71.27,71.21 2.23,-2.23 -2.76,-2.73 c -2.34,-2.38 -3.87,-4.75 -4.47,-7.07 -0.55,-1.58 -0.35,-3.38 0.49,-5.33 0.49,-1.43 2.83,-4.22 6.95,-8.32 l 54.22,-54.24 c 3.75,-3.75 6.09,-5.9 7.19,-6.54 1.81,-1.04 3.67,-1.39 5.52,-1.06 2.68,0.41 5.36,1.95 8.03,4.63 l 2.74,2.73 2.2,-2.24 -68.94,-68.99 -24.4,24.4 2.33,2.26 c 7.16,-4.76 13.02,-7.36 17.77,-7.85 4.71,-0.49 9.67,0.65 14.73,3.3 3,1.55 7.61,5.43 13.9,11.66 l 8.5,8.54"
         id="path244"
         style="fill:#6b3920;fill-opacity:1;fill-rule:nonzero;stroke:none" /><path
         d="m 1321.39,1264.95 27.3,27.7 2.44,-2.58 c -5.84,-7.93 -8.65,-16.35 -8.35,-25.12 0.23,-8.83 3.01,-15.94 8.23,-21.35 4.11,-4.23 8.43,-6.42 13.05,-6.75 4.6,-0.24 8.41,1.03 11.31,3.86 1.86,1.74 3.08,3.83 3.67,6.06 0.79,3.05 0.85,6.83 0.21,11.31 -0.52,3.26 -2.47,10.08 -5.74,20.39 -4.72,14.49 -6.55,25.51 -5.57,33.08 1.03,7.5 4.32,13.93 9.82,19.24 6.99,6.82 15.62,9.87 25.99,9.34 10.31,-0.59 19.55,-5.1 27.66,-13.52 2.56,-2.6 4.7,-5.31 6.46,-8.2 1.71,-2.89 3.58,-6.78 5.51,-11.8 1.08,-2.75 2.25,-4.78 3.47,-6.05 1.03,-1.06 2.55,-1.8 4.52,-2.19 1.96,-0.41 4.19,-0.16 6.59,0.72 l 2.21,-2.26 -31.63,-30.63 -2.2,2.29 c 7.13,10.45 10.51,20.47 10.22,30.15 -0.32,9.73 -3.38,17.54 -9.16,23.52 -4.49,4.63 -9.31,7.11 -14.45,7.38 -5.17,0.3 -9.41,-1.13 -12.75,-4.39 -1.98,-1.9 -3.41,-4.26 -4.21,-7.15 -0.82,-2.81 -1.04,-6.11 -0.62,-9.88 0.41,-3.77 1.84,-9.67 4.46,-17.68 3.62,-11.23 5.74,-19.8 6.35,-25.7 0.57,-5.84 0.1,-11.29 -1.45,-16.23 -1.48,-4.94 -4.24,-9.3 -8.12,-13.07 -6.65,-6.46 -14.72,-9.51 -24.17,-9.16 -9.4,0.37 -17.71,4.28 -24.95,11.72 -2.63,2.71 -4.87,5.64 -6.69,8.85 -1.33,2.4 -2.75,5.66 -4.1,9.76 -1.31,4.06 -2.55,6.66 -3.61,7.78 -1.05,1.05 -2.22,1.62 -3.47,1.54 -1.25,0 -3.35,-0.98 -6.39,-2.85 l -1.84,1.87"
         id="path246"
         style="fill:#6b3920;fill-opacity:1;fill-rule:nonzero;stroke:none" /><path
         d="m 1191.41,1403.08 2.26,2.2 c 1.66,-1.42 3.37,-2.32 5.11,-2.67 1.8,-0.37 3.87,-0.2 6.17,0.45 0.73,0.23 5.18,2.03 13.37,5.37 l 94.49,40.6 2.33,-2.36 -33.9,-73.03 76.13,29.42 2.2,-2.29 -41.74,-93.71 c -4.15,-9.47 -6.43,-15.45 -6.77,-17.97 -0.39,-2.48 0.61,-5.19 2.92,-8.04 l -2.31,-2.25 -35.13,36.33 2.26,2.22 c 2.92,-2.85 5.23,-4.35 6.99,-4.55 1.73,-0.19 3.22,0.34 4.4,1.47 1.58,1.48 3.92,5.68 6.99,12.62 l 24.78,55.76 -44.48,-17.56 -5.57,-12.09 c -3.03,-6.58 -4.86,-11.17 -5.46,-13.79 -0.64,-2.6 -0.69,-4.9 -0.08,-6.89 0.62,-2.06 2.16,-4.36 4.65,-6.96 l -2.27,-2.19 -39.25,40.57 2.27,2.23 c 2.8,-2.8 4.98,-4.63 6.61,-5.49 1.1,-0.51 2.26,-0.76 3.42,-0.59 1.12,0.16 2.17,0.63 3.03,1.49 0.93,0.9 2.93,4.63 6,11.17 l 24.91,53.67 -49.1,-21.09 c -5.1,-2.17 -8.52,-3.71 -10.17,-4.73 -1.7,-0.94 -3.1,-1.97 -4.28,-3.12 -1.65,-1.62 -2.4,-3.5 -2.26,-5.57 0.13,-2.11 1.73,-4.8 4.8,-8.12 l -2.28,-2.25 -21.04,21.74"
         id="path248"
         style="fill:#6b3920;fill-opacity:1;fill-rule:nonzero;stroke:none" /><path
         d="m 3672.3,3712.13 -10.42,-91.76 35.46,35.41 c 4.93,4.92 7.56,9.03 7.87,12.16 0.43,4.31 -1.73,8.65 -6.36,13.16 l 2.22,2.25 27.25,-27.21 -2.25,-2.23 c -3.92,3.01 -6.83,4.8 -8.77,5.29 -1.91,0.48 -3.98,0.23 -6.28,-0.7 -2.21,-0.89 -5.3,-3.33 -9.2,-7.19 l -68.62,-68.63 -2.05,2.04 12.87,124.36 -52.4,-52.37 c -4.74,-4.76 -6.85,-9.02 -6.33,-12.89 0.51,-3.81 2.15,-7.14 4.94,-9.92 l 1.94,-1.95 -2.25,-2.23 -29.24,29.23 2.25,2.24 c 4.59,-4.48 8.71,-6.71 12.28,-6.67 3.56,0.04 7.58,2.23 11.94,6.62 l 58.22,58.14 0.41,3.95 c 0.45,3.98 0.37,6.95 -0.29,8.94 -0.69,2.03 -2.19,4.35 -4.63,6.95 l 2.25,2.24 29.19,-29.23"
         id="path250"
         style="fill:#6b3920;fill-opacity:1;fill-rule:nonzero;stroke:none" /><path
         d="m 3760.43,3614.6 -33.57,-33.58 1.62,-1.63 c 5.25,-5.24 10.64,-7.4 16.31,-6.43 5.58,0.9 11.97,4.23 19,10 l 2.34,-2.31 -43.18,-43.13 -2.29,2.31 c 4.22,5.17 7.04,10.04 8.46,14.6 1.43,4.55 1.62,8.37 0.63,11.5 -1.04,3.09 -3.56,6.59 -7.45,10.53 l -23.22,-23.22 c -4.57,-4.55 -7.11,-7.47 -7.77,-8.9 -0.61,-1.38 -0.72,-2.93 -0.29,-4.67 0.37,-1.67 1.77,-3.7 4.12,-6.06 l 4.9,-4.92 c 7.73,-7.68 15.64,-12.07 23.89,-13.17 8.18,-1.06 16.95,1.05 26.25,6.3 l 2.28,-2.23 -29.92,-22.49 -71.25,71.24 2.28,2.23 2.7,-2.73 c 2.4,-2.39 4.78,-3.9 7.07,-4.51 1.64,-0.49 3.42,-0.33 5.37,0.49 1.43,0.53 4.16,2.85 8.3,6.99 l 54.22,54.23 c 3.71,3.71 5.9,6.1 6.56,7.16 1,1.82 1.33,3.66 1.04,5.53 -0.37,2.68 -1.97,5.36 -4.63,8.01 l -2.72,2.76 2.25,2.23 68.97,-68.98 -24.36,-24.36 -2.3,2.32 c 4.76,7.11 7.36,13.02 7.85,17.77 0.47,4.71 -0.65,9.59 -3.32,14.71 -1.55,3.02 -5.43,7.61 -11.64,13.87 l -8.5,8.54"
         id="path252"
         style="fill:#6b3920;fill-opacity:1;fill-rule:nonzero;stroke:none" /><path
         d="m 1225.69,3594.96 91.75,-10.41 -35.41,35.42 c -4.94,4.91 -8.99,7.56 -12.16,7.88 -4.31,0.4 -8.68,-1.71 -13.2,-6.38 l -2.23,2.27 27.21,27.2 2.27,-2.23 c -3.05,-3.91 -4.82,-6.83 -5.28,-8.75 -0.52,-1.91 -0.26,-4.02 0.63,-6.26 0.95,-2.27 3.36,-5.36 7.23,-9.23 l 68.64,-68.66 -2.06,-2.03 -124.33,12.89 52.38,-52.41 c 4.72,-4.76 9.02,-6.87 12.85,-6.34 3.83,0.53 7.13,2.15 9.92,4.96 l 1.94,1.9 2.28,-2.23 -29.27,-29.23 -2.23,2.28 c 4.51,4.55 6.74,8.66 6.7,12.24 -0.09,3.61 -2.27,7.6 -6.62,11.99 l -58.19,58.17 -3.95,0.41 c -3.92,0.45 -6.93,0.37 -8.94,-0.28 -2.02,-0.69 -4.34,-2.2 -6.92,-4.63 l -2.24,2.23 29.23,29.23"
         id="path254"
         style="fill:#6b3920;fill-opacity:1;fill-rule:nonzero;stroke:none" /><path
         d="m 1407.96,3777.26 2.22,-2.23 c -1.42,-1.67 -2.27,-3.42 -2.57,-5.21 -0.34,-1.75 -0.16,-3.82 0.52,-6.1 0.26,-0.74 2.14,-5.16 5.62,-13.26 l 42.17,-93.87 -2.36,-2.36 -73.55,32.69 30.61,-75.58 -2.23,-2.27 -94.39,40.2 c -9.54,3.99 -15.56,6.14 -18.05,6.47 -2.49,0.33 -5.2,-0.65 -8.03,-3.01 l -2.24,2.23 35.71,35.74 2.29,-2.24 c -2.8,-2.97 -4.3,-5.32 -4.48,-7.07 -0.16,-1.71 0.35,-3.17 1.56,-4.35 1.5,-1.54 5.75,-3.83 12.76,-6.79 l 56.12,-23.86 -18.26,44.19 -12.17,5.37 c -6.66,2.93 -11.25,4.67 -13.86,5.24 -2.63,0.57 -4.95,0.57 -6.93,-0.04 -2.03,-0.65 -4.3,-2.23 -6.88,-4.8 l -2.24,2.24 39.92,39.97 2.3,-2.28 c -2.77,-2.81 -4.56,-5.04 -5.38,-6.67 -0.56,-1.14 -0.77,-2.28 -0.56,-3.46 0.17,-1.14 0.68,-2.11 1.53,-3 0.91,-0.9 4.69,-2.86 11.32,-5.81 l 54.03,-24.04 -21.9,48.75 c -2.22,5.08 -3.81,8.46 -4.84,10.12 -1.03,1.62 -2.12,3.05 -3.22,4.19 -1.67,1.67 -3.53,2.4 -5.62,2.2 -2.13,-0.17 -4.78,-1.8 -8.06,-4.97 l -2.26,2.28 21.4,21.39"
         id="path256"
         style="fill:#6b3920;fill-opacity:1;fill-rule:nonzero;stroke:none" /><path
         d="m 2810.84,3203.67 c 8.48,-20.44 -1.23,-43.87 -21.68,-52.34 -20.43,-8.47 -43.88,1.23 -52.35,21.68 -8.44,20.44 1.27,43.89 21.7,52.34 20.44,8.47 43.87,-1.24 52.33,-21.68"
         id="path258"
         style="fill:#6b3920;fill-opacity:1;fill-rule:nonzero;stroke:none" /><path
         d="m 3214.08,2234.33 c 8.48,-20.45 -1.23,-43.89 -21.68,-52.37 -20.45,-8.47 -43.88,1.25 -52.34,21.68 -8.44,20.45 1.23,43.89 21.7,52.35 20.41,8.47 43.87,-1.21 52.32,-21.66"
         id="path260"
         style="fill:#6b3920;fill-opacity:1;fill-rule:nonzero;stroke:none" /><path
         d="m 2242.85,1834.48 c 8.45,-20.41 -1.24,-43.86 -21.69,-52.34 -20.44,-8.44 -43.88,1.25 -52.33,21.68 -8.46,20.45 1.23,43.89 21.67,52.34 20.45,8.48 43.89,-1.21 52.35,-21.68"
         id="path262"
         style="fill:#6b3920;fill-opacity:1;fill-rule:nonzero;stroke:none" /><path
         d="m 1839.67,2801.86 c 8.46,-20.44 -1.24,-43.88 -21.69,-52.34 -20.43,-8.46 -43.86,1.25 -52.34,21.69 -8.46,20.43 1.25,43.87 21.7,52.33 20.42,8.46 43.87,-1.24 52.33,-21.68"
         id="path264"
         style="fill:#6b3920;fill-opacity:1;fill-rule:nonzero;stroke:none" /><path
         d="m 2221.63,3225.52 c 20.44,-8.46 30.15,-31.9 21.7,-52.33 -8.48,-20.44 -31.92,-30.17 -52.35,-21.69 -20.44,8.48 -30.15,31.89 -21.69,52.34 8.48,20.43 31.9,30.15 52.34,21.68"
         id="path266"
         style="fill:#6b3920;fill-opacity:1;fill-rule:nonzero;stroke:none" /><path
         d="m 3192.21,2825.22 c 20.41,-8.48 30.13,-31.9 21.66,-52.34 -8.46,-20.45 -31.88,-30.15 -52.35,-21.69 -20.43,8.48 -30.13,31.9 -21.66,52.35 8.44,20.44 31.9,30.14 52.35,21.68"
         id="path268"
         style="fill:#6b3920;fill-opacity:1;fill-rule:nonzero;stroke:none" /><path
         d="m 2788.14,1855.71 c 20.43,-8.45 30.16,-31.89 21.68,-52.32 -8.45,-20.45 -31.89,-30.16 -52.33,-21.68 -20.45,8.46 -30.14,31.89 -21.68,52.32 8.46,20.45 31.89,30.18 52.33,21.68"
         id="path270"
         style="fill:#6b3920;fill-opacity:1;fill-rule:nonzero;stroke:none" /><path
         d="m 1819.02,2254.68 c 20.45,-8.48 30.15,-31.92 21.68,-52.34 -8.46,-20.45 -31.92,-30.16 -52.33,-21.67 -20.45,8.44 -30.14,31.88 -21.7,52.33 8.48,20.43 31.93,30.12 52.35,21.68"
         id="path272"
         style="fill:#6b3920;fill-opacity:1;fill-rule:nonzero;stroke:none" /><path
         d="m 2309.24,2692.25 189.38,1559.32 189.44,-1559.32 -189.42,-189.18 -189.4,189.18"
         id="path274"
         style="fill:#ffffff;fill-opacity:1;fill-rule:evenodd;stroke:none" /><path
         d="m 2309.24,2692.25 189.38,1559.32 189.44,-1559.32 -189.42,-189.18 -189.4,189.18 z"
         id="path276"
         style="fill:none;stroke:#6b3920;stroke-width:10;stroke-linecap:butt;stroke-linejoin:miter;stroke-miterlimit:10;stroke-opacity:1;stroke-dasharray:none" /><path
         d="m 2309.24,2692.25 189.19,1558.09 0.21,-1747.27 -189.4,189.18"
         id="path278"
         style="fill:#6b3920;fill-opacity:1;fill-rule:evenodd;stroke:none" /><path
         d="M 2311.32,2312.7 749.926,2502.77 2309.24,2692.25 2498.64,2503.07 2311.32,2312.7"
         id="path280"
         style="fill:#ffffff;fill-opacity:1;fill-rule:evenodd;stroke:none" /><path
         d="M 2311.32,2312.7 749.926,2502.77 2309.24,2692.25 2498.64,2503.07 2311.32,2312.7 z"
         id="path282"
         style="fill:none;stroke:#6b3920;stroke-width:10;stroke-linecap:butt;stroke-linejoin:miter;stroke-miterlimit:10;stroke-opacity:1;stroke-dasharray:none" /><path
         d="m 2309.24,2313.44 -1559.314,189.33 1748.714,0.3 -189.4,-189.63"
         id="path284"
         style="fill:#6b3920;fill-opacity:1;fill-rule:evenodd;stroke:none" /><path
         d="M 2688.06,2313.44 2498.72,754.109 2309.24,2313.44 l 189.4,189.63 189.42,-189.63"
         id="path286"
         style="fill:#ffffff;fill-opacity:1;fill-rule:evenodd;stroke:none" /><path
         d="M 2688.06,2313.44 2498.72,754.109 2309.24,2313.44 l 189.4,189.63 189.42,-189.63 z"
         id="path288"
         style="fill:none;stroke:#6b3920;stroke-width:10;stroke-linecap:butt;stroke-linejoin:miter;stroke-miterlimit:10;stroke-opacity:1;stroke-dasharray:none" /><path
         d="m 2688.06,2313.44 -189.18,-1558.139 0,1747.519 189.18,-189.38"
         id="path290"
         style="fill:#6b3920;fill-opacity:1;fill-rule:evenodd;stroke:none" /><path
         d="m 2688.06,2692.25 1559.38,-189.38 -1559.38,-189.43 -189.42,189.63 189.42,189.18"
         id="path292"
         style="fill:#ffffff;fill-opacity:1;fill-rule:evenodd;stroke:none" /><path
         d="m 2688.06,2692.25 1559.38,-189.38 -1559.38,-189.43 -189.42,189.63 189.42,189.18 z"
         id="path294"
         style="fill:none;stroke:#6b3920;stroke-width:10;stroke-linecap:butt;stroke-linejoin:miter;stroke-miterlimit:10;stroke-opacity:1;stroke-dasharray:none" /><path
         d="m 2688.06,2692.25 1558.09,-189.18 -1747.51,0 189.42,189.18"
         id="path296"
         style="fill:#6b3920;fill-opacity:1;fill-rule:evenodd;stroke:none" /><path
         d="m 2350.36,2502.83 -536.32,684.58 684.62,-536.27 -0.1,-148.22 -148.2,-0.09"
         id="path298"
         style="fill:#ffffff;fill-opacity:1;fill-rule:evenodd;stroke:none" /><path
         d="m 2350.36,2502.83 -536.32,684.58 684.62,-536.27 -0.1,-148.22 -148.2,-0.09 z"
         id="path300"
         style="fill:none;stroke:#6b3920;stroke-width:10;stroke-linecap:butt;stroke-linejoin:miter;stroke-miterlimit:10;stroke-opacity:1;stroke-dasharray:none" /><path
         d="m 2350.36,2502.83 -535.91,684.04 684.11,-683.95 -148.2,-0.09"
         id="path302"
         style="fill:#6b3920;fill-opacity:1;fill-rule:evenodd;stroke:none" /><path
         d="m 2499.78,2355.06 -685.69,-536.85 536.27,684.62 148.2,0.09 1.22,-147.86"
         id="path304"
         style="fill:#ffffff;fill-opacity:1;fill-rule:evenodd;stroke:none" /><path
         d="m 2499.78,2355.06 -685.69,-536.85 536.27,684.62 148.2,0.09 1.22,-147.86 z"
         id="path306"
         style="fill:none;stroke:#6b3920;stroke-width:10;stroke-linecap:butt;stroke-linejoin:miter;stroke-miterlimit:10;stroke-opacity:1;stroke-dasharray:none" /><path
         d="m 2498.66,2354.55 -684.57,-536.34 684.47,684.71 0.1,-148.37"
         id="path308"
         style="fill:#6b3920;fill-opacity:1;fill-rule:evenodd;stroke:none" /><path
         d="m 2646.96,2502.83 536.32,-684.58 -684.62,536.3 -0.1,148.37 148.4,-0.09"
         id="path310"
         style="fill:#ffffff;fill-opacity:1;fill-rule:evenodd;stroke:none" /><path
         d="m 2646.96,2502.83 536.32,-684.58 -684.62,536.3 -0.1,148.37 148.4,-0.09 z"
         id="path312"
         style="fill:none;stroke:#6b3920;stroke-width:10;stroke-linecap:butt;stroke-linejoin:miter;stroke-miterlimit:10;stroke-opacity:1;stroke-dasharray:none" /><path
         d="m 2646.96,2502.83 535.91,-684.05 -684.11,684.14 148.2,-0.09"
         id="path314"
         style="fill:#6b3920;fill-opacity:1;fill-rule:evenodd;stroke:none" /><path
         d="m 2498.66,2651.14 684.6,536.33 -536.3,-684.64 -148.4,0.09 0.1,148.22"
         id="path316"
         style="fill:#ffffff;fill-opacity:1;fill-rule:evenodd;stroke:none" /><path
         d="m 2498.66,2651.14 684.6,536.33 -536.3,-684.64 -148.4,0.09 0.1,148.22 z"
         id="path318"
         style="fill:none;stroke:#6b3920;stroke-width:10;stroke-linecap:butt;stroke-linejoin:miter;stroke-miterlimit:10;stroke-opacity:1;stroke-dasharray:none" /><path
         d="m 2498.66,2651.14 684.02,535.89 -684.12,-684.11 0.1,148.22"
         id="path320"
         style="fill:#6b3920;fill-opacity:1;fill-rule:evenodd;stroke:none" /></g></g></svg>