<?xml version="1.0" encoding="UTF-8" standalone="no"?>
<!-- Created with Inkscape (http://www.inkscape.org/) -->

<svg
   xmlns:dc="http://purl.org/dc/elements/1.1/"
   xmlns:cc="http://creativecommons.org/ns#"
   xmlns:rdf="http://www.w3.org/1999/02/22-rdf-syntax-ns#"
   xmlns:svg="http://www.w3.org/2000/svg"
   xmlns="http://www.w3.org/2000/svg"
   xmlns:xlink="http://www.w3.org/1999/xlink"
   version="1.0"
   width="128"
   height="64"
   id="svg2160">
  <defs
     id="defs2162">
    <linearGradient
       id="linearGradient3201">
      <stop
         id="stop3203"
         style="stop-color:#ff9b9b;stop-opacity:1"
         offset="0" />
      <stop
         id="stop3205"
         style="stop-color:#f00000;stop-opacity:1"
         offset="1" />
    </linearGradient>
    <linearGradient
       id="linearGradient3195">
      <stop
         id="stop3197"
         style="stop-color:#9bffb3;stop-opacity:1"
         offset="0" />
      <stop
         id="stop3199"
         style="stop-color:#00f038;stop-opacity:1"
         offset="1" />
    </linearGradient>
    <linearGradient
       id="linearGradient3177">
      <stop
         id="stop3179"
         style="stop-color:#9bffb3;stop-opacity:1"
         offset="0" />
      <stop
         id="stop3181"
         style="stop-color:#00f038;stop-opacity:1"
         offset="1" />
    </linearGradient>
    <linearGradient
       id="linearGradient3143">
      <stop
         id="stop3145"
         style="stop-color:#ffffff;stop-opacity:1"
         offset="0" />
      <stop
         id="stop3147"
         style="stop-color:#00f038;stop-opacity:0"
         offset="1" />
    </linearGradient>
    <radialGradient
       cx="15.891459"
       cy="15.16281"
       r="27.545454"
       fx="15.891459"
       fy="15.16281"
       id="radialGradient3153"
       xlink:href="#linearGradient3143"
       gradientUnits="userSpaceOnUse" />
    <radialGradient
       cx="16.02803"
       cy="16.847178"
       r="27.545454"
       fx="16.02803"
       fy="16.847178"
       id="radialGradient3183"
       xlink:href="#linearGradient3177"
       gradientUnits="userSpaceOnUse"
       gradientTransform="matrix(0.918882,0.9453245,-0.7170652,0.6970061,13.380687,-10.047099)" />
    <radialGradient
       cx="15.891459"
       cy="15.16281"
       r="27.545454"
       fx="15.891459"
       fy="15.16281"
       id="radialGradient3191"
       xlink:href="#linearGradient3143"
       gradientUnits="userSpaceOnUse" />
    <radialGradient
       cx="16.02803"
       cy="16.847178"
       r="27.545454"
       fx="16.02803"
       fy="16.847178"
       id="radialGradient3193"
       xlink:href="#linearGradient3201"
       gradientUnits="userSpaceOnUse"
       gradientTransform="matrix(0.918882,0.9453245,-0.7170652,0.6970061,13.380687,-10.047099)" />
    <radialGradient
       cx="15.891459"
       cy="15.16281"
       r="27.545454"
       fx="15.891459"
       fy="15.16281"
       id="radialGradient2197"
       xlink:href="#linearGradient3143"
       gradientUnits="userSpaceOnUse" />
    <radialGradient
       cx="16.02803"
       cy="16.847178"
       r="27.545454"
       fx="16.02803"
       fy="16.847178"
       id="radialGradient2199"
       xlink:href="#linearGradient3177"
       gradientUnits="userSpaceOnUse"
       gradientTransform="matrix(0.918882,0.9453245,-0.7170652,0.6970061,13.380687,-10.047099)" />
    <radialGradient
       cx="15.891459"
       cy="15.16281"
       r="27.545454"
       fx="15.891459"
       fy="15.16281"
       id="radialGradient2201"
       xlink:href="#linearGradient3143"
       gradientUnits="userSpaceOnUse" />
    <radialGradient
       cx="16.02803"
       cy="16.847178"
       r="27.545454"
       fx="16.02803"
       fy="16.847178"
       id="radialGradient2203"
       xlink:href="#linearGradient3201"
       gradientUnits="userSpaceOnUse"
       gradientTransform="matrix(0.918882,0.9453245,-0.7170652,0.6970061,13.380687,-10.047099)" />
  </defs>
  <metadata
     id="metadata2165">
    <rdf:RDF>
      <cc:Work
         rdf:about="">
        <dc:format>image/svg+xml</dc:format>
        <dc:type
           rdf:resource="http://purl.org/dc/dcmitype/StillImage" />
        <dc:title></dc:title>
      </cc:Work>
    </rdf:RDF>
  </metadata>
  <g
     id="layer1">
    <g
       transform="translate(0.5000016,-0.4999988)"
       id="g2179">
      <path
         d="m 55.090908,27.727272 a 27.545454,27.545454 0 1 1 -55.090908,0 27.545454,27.545454 0 1 1 55.090908,0 z"
         transform="matrix(0.9984871,0,0,0.9984872,3.9962179,4.8146726)"
         id="path3141"
         style="color:#000000;fill:url(#radialGradient2197);fill-opacity:1;fill-rule:nonzero;stroke:none;stroke-width:5;marker:none;visibility:visible;display:inline;overflow:visible;enable-background:accumulate" />
      <path
         d="m 55.090908,27.727272 a 27.545454,27.545454 0 1 1 -55.090908,0 27.545454,27.545454 0 1 1 55.090908,0 z"
         transform="matrix(0.9984871,0,0,0.9984872,3.9962179,4.8146726)"
         id="path2168"
         style="color:#000000;fill:url(#radialGradient2199);fill-opacity:1;fill-rule:nonzero;stroke:#00be31;stroke-width:2.50378776;stroke-linecap:round;stroke-linejoin:round;stroke-miterlimit:4;stroke-opacity:1;stroke-dasharray:none;stroke-dashoffset:0;marker:none;visibility:visible;display:inline;overflow:visible;enable-background:accumulate" />
      <path
         d="M 47.25,15.710227 C 37.925052,18.218501 29.622677,25.724205 28,35.491477 24.075429,32.885436 20.78279,27.535685 16.03125,27.272727 12.89431,28.906123 5.5973821,33.138939 11.75,35.616477 c 5.504524,4.277752 13.751589,8.130934 15.0625,15.5625 2.689014,2.512663 6.166866,-1.05903 8.96875,-2 3.474057,-5.623345 -0.428483,-13.369984 2.9375,-19.34375 1.738618,-5.633998 7.820419,-7.914638 11.28125,-12 -0.0034,-1.483117 -1.360663,-2.510232 -2.75,-2.125 z"
         id="path3167"
         style="color:#000000;fill:#ffffff;fill-opacity:1;fill-rule:nonzero;stroke:none;stroke-width:1;marker:none;visibility:visible;display:inline;overflow:visible;enable-background:accumulate" />
    </g>
    <g
       transform="translate(4.499782,-0.4999988)"
       id="g2184">
      <path
         d="m 55.090908,27.727272 a 27.545454,27.545454 0 1 1 -55.090908,0 27.545454,27.545454 0 1 1 55.090908,0 z"
         transform="matrix(0.9984871,0,0,0.9984872,63.996218,4.8146726)"
         id="path3185"
         style="color:#000000;fill:url(#radialGradient2201);fill-opacity:1;fill-rule:nonzero;stroke:none;stroke-width:5;marker:none;visibility:visible;display:inline;overflow:visible;enable-background:accumulate" />
      <path
         d="m 55.090908,27.727272 a 27.545454,27.545454 0 1 1 -55.090908,0 27.545454,27.545454 0 1 1 55.090908,0 z"
         transform="matrix(0.9984871,0,0,0.9984872,63.996218,4.8146726)"
         id="path3187"
         style="color:#000000;fill:url(#radialGradient2203);fill-opacity:1;fill-rule:nonzero;stroke:#be0000;stroke-width:2.50378776;stroke-linecap:round;stroke-linejoin:round;stroke-miterlimit:4;stroke-opacity:1;stroke-dasharray:none;stroke-dashoffset:0;marker:none;visibility:visible;display:inline;overflow:visible;enable-background:accumulate" />
      <path
         d="m 95.59375,19.3125 c -1.797963,1.550928 -3.144575,4.369153 -4.53125,5.84375 -2.631541,-2.176956 -3.818796,-6.235821 -6.65625,-7.375 -3.440652,0.918284 -8.904246,4.13536 -4.875,7.625 2.057638,3.042343 6.19448,5.746409 7.15625,8.90625 -1.467297,3.789445 -4.291004,6.615035 -7.03125,9.375 1.339926,4.675424 7.754806,0.524782 10.34375,-1.75 2.064796,-4.633784 3.568315,0.89824 5.499363,2.891019 1.540536,6.222682 9.804157,4.403425 10.521597,-0.739436 C 103.18133,39.540222 99.239185,35.164727 96.5,30.6875 c 1.085129,-4.654237 5.63344,-7.770394 6.6875,-12.28125 -1.78928,-3.12228 -5.281305,0.352321 -7.59375,0.90625 z"
         id="path3207"
         style="color:#000000;fill:#ffffff;fill-opacity:1;fill-rule:nonzero;stroke:none;stroke-width:1;marker:none;visibility:visible;display:inline;overflow:visible;enable-background:accumulate" />
    </g>
  </g>
</svg>
